<?xml version="1.0" encoding="utf-8"?>
<!-- Generator: Adobe Illustrator 24.2.1, SVG Export Plug-In . SVG Version: 6.00 Build 0)  -->
<svg version="1.1" id="Layer_1" xmlns="http://www.w3.org/2000/svg" xmlns:xlink="http://www.w3.org/1999/xlink" x="0px" y="0px"
	 viewBox="0 0 595.3 841.9" style="enable-background:new 0 0 595.3 841.9;" xml:space="preserve">
<style type="text/css">
	.st0{fill:#FFF3EA;}
	.st1{fill:none;stroke:#C99357;stroke-width:4;stroke-linecap:round;stroke-linejoin:round;stroke-miterlimit:10;}
	.st2{fill:none;}
	.st3{fill:#798D58;stroke:#FFF3EA;stroke-width:3;stroke-miterlimit:10;}
</style>
<g>
	<circle class="st0" cx="281" cy="448.5" r="98.8"/>
	<path class="st1" d="M184,434.5c0.7-4.9,1.7-9.7,3-14.3"/>
	<path class="st1" d="M187,420.2c11.9-40.7,49.4-70.5,94-70.5c54.1,0,97.9,43.8,97.9,97.9S335,545.5,281,545.5s-97.9-43.8-97.9-97.9
		c0-4.5,0.3-8.8,0.9-13.1"/>
	<path id="SVGID_x5F_1_x5F_" class="st2" d="M162.7,447.7c0-65.3,53-118.3,118.3-118.3s118.3,53,118.3,118.3S346.3,566,281,566
		S162.7,513,162.7,447.7z"/>
	<text>	<textPath  xlink:href="#SVGID_x5F_1_x5F_" startOffset="20.4508%">
<tspan  style="fill:#EFAD4D; font-family:'Gotham-Bold'; font-size:25.2px; letter-spacing:200;">RÉVÉLER</tspan>	</textPath>
</text>
	<path class="st1" d="M368.8,354.8c10.4,9.9,19.2,21.5,25.8,34.3c9,17.5,14.1,37.4,14.1,58.5c0,70.6-57.2,127.8-127.8,127.8
		s-127.8-57.2-127.8-127.8c0-25.2,7.3-48.7,19.9-68.6c5.7-8.9,12.4-17.1,20-24.3"/>
	<path class="st1" d="M167.2,433.3L167.2,433.3c62.3,0,112.9,50.1,113.8,112.2"/>
	<path class="st1" d="M394.8,433.3L394.8,433.3c-62.3,0-112.9,50.1-113.8,112.2"/>
	<ellipse class="st3" cx="227" cy="450.7" rx="11.7" ry="12.1"/>
	<ellipse class="st3" cx="329.9" cy="450.7" rx="11.7" ry="12.1"/>
</g>
</svg>
